# Blender v3.0.0 OBJ File: 'table1.blend'
# www.blender.org
mtllib table1size2.mtl
o Cube.004_Cube.006
v -0.751125 0.006448 -0.850171
v 0.363162 0.006448 -0.843591
v -0.751125 0.068720 -0.850171
v 0.363162 0.068720 -0.843591
v -0.759652 0.006448 0.593865
v 0.354635 0.006448 0.600445
v -0.759652 0.068720 0.593865
v 0.354635 0.068720 0.600445
v -0.749564 0.516316 -0.850161
v -0.749564 0.013421 -0.850161
v -0.629978 0.516316 -0.849455
v -0.629978 0.013421 -0.849455
v -0.758091 0.516316 0.593874
v -0.758091 0.013421 0.593874
v -0.638506 0.516316 0.594580
v -0.638506 0.013421 0.594580
v -0.751335 0.441986 -0.850172
v 0.077755 0.441986 -0.845276
v -0.751335 0.521049 -0.850172
v 0.077755 0.521049 -0.845276
v -0.759862 0.441986 0.593863
v 0.069227 0.441986 0.598759
v -0.759862 0.521049 0.593863
v 0.069227 0.521049 0.598759
v 0.607868 0.449718 -0.764288
v -0.313000 0.449718 -0.769726
v 0.607868 0.375401 -0.764288
v -0.313000 0.375401 -0.769725
v 0.600261 0.449719 0.524037
v -0.320607 0.449719 0.518599
v 0.600261 0.375402 0.524037
v -0.320607 0.375402 0.518599
v 0.608057 0.144285 -0.764286
v -0.064385 0.144285 -0.768257
v 0.608057 0.069968 -0.764286
v -0.064385 0.069968 -0.768257
v 0.600449 0.144286 0.524038
v -0.071993 0.144286 0.520068
v 0.600449 0.069969 0.524038
v -0.071993 0.069969 0.520068
v 0.607198 0.449718 -0.764292
v 0.607198 0.375401 -0.764292
v 0.599590 0.449719 0.524033
v 0.599590 0.375402 0.524033
v 0.607822 0.076770 -0.764288
v 0.607822 0.448656 -0.764288
v 0.510716 0.076770 -0.764861
v 0.510716 0.448656 -0.764862
v 0.600214 0.076771 0.524037
v 0.600214 0.448657 0.524037
v 0.503109 0.076771 0.523464
v 0.503109 0.448657 0.523463
v 0.607334 0.144285 -0.764291
v 0.607334 0.069968 -0.764291
v 0.599727 0.144286 0.524034
v 0.599727 0.069969 0.524034
vt 0.375000 0.000000
vt 0.375000 0.250000
vt 0.625000 0.250000
vt 0.625000 0.000000
vt 0.375000 0.500000
vt 0.625000 0.500000
vt 0.375000 0.750000
vt 0.625000 0.750000
vt 0.375000 1.000000
vt 0.625000 1.000000
vt 0.125000 0.500000
vt 0.125000 0.750000
vt 0.875000 0.750000
vt 0.875000 0.500000
vt 0.375000 0.000000
vt 0.375000 0.250000
vt 0.625000 0.250000
vt 0.625000 0.000000
vt 0.375000 0.500000
vt 0.625000 0.500000
vt 0.375000 0.750000
vt 0.625000 0.750000
vt 0.375000 1.000000
vt 0.625000 1.000000
vt 0.125000 0.500000
vt 0.125000 0.750000
vt 0.875000 0.750000
vt 0.875000 0.500000
vt 0.375000 0.000000
vt 0.375000 0.250000
vt 0.625000 0.250000
vt 0.625000 0.000000
vt 0.375000 0.500000
vt 0.625000 0.500000
vt 0.375000 0.750000
vt 0.625000 0.750000
vt 0.375000 1.000000
vt 0.625000 1.000000
vt 0.125000 0.500000
vt 0.125000 0.750000
vt 0.875000 0.750000
vt 0.875000 0.500000
vt 0.375000 0.000000
vt 0.375000 0.250000
vt 0.625000 0.250000
vt 0.625000 0.000000
vt 0.375000 0.500000
vt 0.625000 0.500000
vt 0.375000 0.750000
vt 0.625000 0.750000
vt 0.375000 1.000000
vt 0.625000 1.000000
vt 0.875000 0.750000
vt 0.875000 0.500000
vt 0.375000 0.000000
vt 0.375000 0.250000
vt 0.625000 0.250000
vt 0.625000 0.000000
vt 0.375000 0.500000
vt 0.625000 0.500000
vt 0.375000 0.750000
vt 0.625000 0.750000
vt 0.375000 1.000000
vt 0.625000 1.000000
vt 0.875000 0.750000
vt 0.875000 0.500000
vt 0.125000 0.500000
vt 0.125000 0.750000
vt 0.375000 0.750000
vt 0.375000 0.500000
vt 0.375000 0.000000
vt 0.375000 0.250000
vt 0.625000 0.250000
vt 0.625000 0.000000
vt 0.375000 0.500000
vt 0.625000 0.500000
vt 0.375000 0.750000
vt 0.625000 0.750000
vt 0.375000 1.000000
vt 0.625000 1.000000
vt 0.125000 0.500000
vt 0.125000 0.750000
vt 0.875000 0.750000
vt 0.875000 0.500000
vt 0.125000 0.500000
vt 0.125000 0.750000
vt 0.375000 0.750000
vt 0.375000 0.500000
vn 0.0059 0.0000 -1.0000
vn -0.0000 1.0000 -0.0000
vn -0.0059 0.0000 1.0000
vn 0.0000 -1.0000 0.0000
vn -1.0000 0.0000 -0.0059
vn 1.0000 0.0000 0.0059
usemtl offwhite
s off
f 1/1/1 3/2/1 4/3/1 2/4/1
f 3/2/2 7/5/2 8/6/2 4/3/2
f 7/5/3 5/7/3 6/8/3 8/6/3
f 5/7/4 1/9/4 2/10/4 6/8/4
f 3/11/5 1/12/5 5/7/5 7/5/5
f 8/6/6 6/8/6 2/13/6 4/14/6
f 9/15/1 11/16/1 12/17/1 10/18/1
f 11/16/6 15/19/6 16/20/6 12/17/6
f 15/19/3 13/21/3 14/22/3 16/20/3
f 13/21/5 9/23/5 10/24/5 14/22/5
f 11/25/2 9/26/2 13/21/2 15/19/2
f 16/20/4 14/22/4 10/27/4 12/28/4
f 17/29/1 19/30/1 20/31/1 18/32/1
f 19/30/2 23/33/2 24/34/2 20/31/2
f 23/33/3 21/35/3 22/36/3 24/34/3
f 21/35/4 17/37/4 18/38/4 22/36/4
f 19/39/5 17/40/5 21/35/5 23/33/5
f 24/34/6 22/36/6 18/41/6 20/42/6
usemtl black
f 25/43/1 27/44/1 28/45/1 26/46/1
f 27/44/4 31/47/4 32/48/4 28/45/4
f 31/47/3 29/49/3 30/50/3 32/48/3
f 29/49/2 25/51/2 26/52/2 30/50/2
f 32/48/5 30/50/5 26/53/5 28/54/5
f 33/55/1 35/56/1 36/57/1 34/58/1
f 35/56/4 39/59/4 40/60/4 36/57/4
f 39/59/3 37/61/3 38/62/3 40/60/3
f 37/61/2 33/63/2 34/64/2 38/62/2
f 40/60/5 38/62/5 34/65/5 36/66/5
f 42/67/6 41/68/6 43/69/6 44/70/6
f 45/71/1 47/72/1 48/73/1 46/74/1
f 47/72/5 51/75/5 52/76/5 48/73/5
f 51/75/3 49/77/3 50/78/3 52/76/3
f 49/77/6 45/79/6 46/80/6 50/78/6
f 47/81/4 45/82/4 49/77/4 51/75/4
f 52/76/2 50/78/2 46/83/2 48/84/2
f 54/85/6 53/86/6 55/87/6 56/88/6
